# xmcd
# 
# Track frame offsets:
#     150
#     6187
#     25607
#     43480
#     59612
#     78360
#     99400
#     127092
#     154897
#     171310
#     189762
#     208815
#     229197
#     246975
# 
# Disc length: 3581
# 
# Revision: 2
# Processed by: cddbd v1.5.2PL0 Copyright (c) Steve Scherf et al.
# Submitted via: BonkEnc v1.0.8
# 
DISCID=bf0dfb0e
DTITLE=ribbon - ROCK’N ROLL ribbon〜Merry-Hurry 完全版 Disc 1
DYEAR=1994
DGENRE=
TTITLE0=From The Beginning
TTITLE1=ガラスの上のBroken
TTITLE2=嵐のくちびる
TTITLE3=やっぱり“ribbon”はやめられない
TTITLE4=メリハリで愛して
TTITLE5=花柄のスリル
TTITLE6=真夏のフェミニスト
TTITLE7=シェリー
TTITLE8=真夜中のダーリン
TTITLE9=GOLD STORY
TTITLE10=正しい の行方
TTITLE11=世紀末の天使
TTITLE12=夜明けなんていらない
TTITLE13=Deep Breath
EXTD=
EXTT0=
EXTT1=
EXTT2=
EXTT3=
EXTT4=
EXTT5=
EXTT6=
EXTT7=
EXTT8=
EXTT9=
EXTT10=
EXTT11=
EXTT12=
EXTT13=
PLAYORDER=
